<?xml version="1.0" encoding="UTF-8" standalone="no"?>
<!DOCTYPE svg PUBLIC "-//W3C//DTD SVG 1.1//EN"
 "http://www.w3.org/Graphics/SVG/1.1/DTD/svg11.dtd">
<!-- Generated by graphviz version 2.44.1 (20200629.0846)
 -->
<!-- Title: dependencies Pages: 1 -->
<svg width="592pt" height="360pt"
 viewBox="0.00 0.00 592.00 360.00" xmlns="http://www.w3.org/2000/svg" xmlns:xlink="http://www.w3.org/1999/xlink">
<g id="graph0" class="graph" transform="scale(1 1) rotate(0) translate(4 356)">
<title>dependencies</title>
<polygon fill="white" stroke="transparent" points="-4,4 -4,-356 588,-356 588,4 -4,4"/>
<text text-anchor="start" x="271.01" y="-42.4" font-family="sans-serif" font-weight="bold" font-size="14.00">Legend</text>
<polygon fill="#ffffb3" stroke="transparent" points="58,-10 58,-30 78,-30 78,-10 58,-10"/>
<text text-anchor="start" x="81.63" y="-15.4" font-family="sans-serif" font-size="14.00"> &#160;Declarations</text>
<polygon fill="#8dd3c7" stroke="transparent" points="171,-10 171,-30 191,-30 191,-10 171,-10"/>
<text text-anchor="start" x="194.73" y="-15.4" font-family="sans-serif" font-size="14.00"> &#160;Module</text>
<polygon fill="#80b1d3" stroke="transparent" points="257,-10 257,-30 277,-30 277,-10 257,-10"/>
<text text-anchor="start" x="280.78" y="-15.4" font-family="sans-serif" font-size="14.00"> &#160;Bootstrap</text>
<polygon fill="#fdb462" stroke="transparent" points="354,-10 354,-30 374,-30 374,-10 354,-10"/>
<text text-anchor="start" x="377.67" y="-15.4" font-family="sans-serif" font-size="14.00"> &#160;Providers</text>
<polygon fill="#fb8072" stroke="transparent" points="450,-10 450,-30 470,-30 470,-10 450,-10"/>
<text text-anchor="start" x="473.73" y="-15.4" font-family="sans-serif" font-size="14.00"> &#160;Exports</text>
<g id="clust1" class="cluster">
<title>cluster_AppModule</title>
<polygon fill="none" stroke="black" stroke-dasharray="1,5" points="174,-146 174,-344 576,-344 576,-146 174,-146"/>
</g>
<g id="clust2" class="cluster">
<title>cluster_AppModule_declarations</title>
<polygon fill="none" stroke="black" points="446,-154 446,-206 568,-206 568,-154 446,-154"/>
</g>
<g id="clust4" class="cluster">
<title>cluster_AppModule_imports</title>
<polygon fill="none" stroke="black" points="182,-154 182,-206 438,-206 438,-154 182,-154"/>
</g>
<g id="clust6" class="cluster">
<title>cluster_AppModule_bootstrap</title>
<polygon fill="none" stroke="black" points="304,-284 304,-336 428,-336 428,-284 304,-284"/>
</g>
<g id="clust14" class="cluster">
<title>cluster_HomeModule</title>
<polygon fill="none" stroke="black" stroke-dasharray="1,5" points="8,-70 8,-138 449,-138 449,-70 8,-70"/>
</g>
<g id="clust15" class="cluster">
<title>cluster_HomeModule_declarations</title>
<polygon fill="none" stroke="black" points="16,-78 16,-130 441,-130 441,-78 16,-78"/>
</g>
<!-- AppComponent -->
<g id="node1" class="node">
<title>AppComponent</title>
<polygon fill="#ffffb3" stroke="black" points="559.94,-198 454.06,-198 454.06,-162 559.94,-162 559.94,-198"/>
<text text-anchor="middle" x="507" y="-175.8" font-family="Times,serif" font-size="14.00">AppComponent</text>
</g>
<!-- AppModule -->
<g id="node2" class="node">
<title>AppModule</title>
<polygon fill="#8dd3c7" stroke="black" points="407.66,-263 404.66,-267 383.66,-267 380.66,-263 324.34,-263 324.34,-227 407.66,-227 407.66,-263"/>
<text text-anchor="middle" x="366" y="-240.8" font-family="Times,serif" font-size="14.00">AppModule</text>
</g>
<!-- AppComponent&#45;&gt;AppModule -->
<g id="edge1" class="edge">
<title>AppComponent&#45;&gt;AppModule</title>
<path fill="none" stroke="black" d="M507,-198.11C507,-217.34 507,-245 507,-245 507,-245 417.92,-245 417.92,-245"/>
<polygon fill="black" stroke="black" points="417.92,-241.5 407.92,-245 417.92,-248.5 417.92,-241.5"/>
</g>
<!-- AppComponent  -->
<g id="node5" class="node">
<title>AppComponent </title>
<polygon fill="#80b1d3" stroke="black" points="420.44,-328 311.56,-328 311.56,-292 420.44,-292 420.44,-328"/>
<text text-anchor="middle" x="366" y="-305.8" font-family="Times,serif" font-size="14.00">AppComponent </text>
</g>
<!-- AppModule&#45;&gt;AppComponent  -->
<g id="edge4" class="edge">
<title>AppModule&#45;&gt;AppComponent </title>
<path fill="none" stroke="black" stroke-dasharray="1,5" d="M366,-263.11C366,-263.11 366,-281.99 366,-281.99"/>
<polygon fill="black" stroke="black" points="362.5,-281.99 366,-291.99 369.5,-281.99 362.5,-281.99"/>
</g>
<!-- AppRoutingModule -->
<g id="node3" class="node">
<title>AppRoutingModule</title>
<polygon fill="#8dd3c7" stroke="black" points="430.27,-198 427.27,-202 406.27,-202 403.27,-198 301.73,-198 301.73,-162 430.27,-162 430.27,-198"/>
<text text-anchor="middle" x="366" y="-175.8" font-family="Times,serif" font-size="14.00">AppRoutingModule</text>
</g>
<!-- AppRoutingModule&#45;&gt;AppModule -->
<g id="edge2" class="edge">
<title>AppRoutingModule&#45;&gt;AppModule</title>
<path fill="none" stroke="black" d="M366,-198.11C366,-198.11 366,-216.99 366,-216.99"/>
<polygon fill="black" stroke="black" points="362.5,-216.99 366,-226.99 369.5,-216.99 362.5,-216.99"/>
</g>
<!-- HomeModule -->
<g id="node4" class="node">
<title>HomeModule</title>
<polygon fill="#8dd3c7" stroke="black" points="283.76,-198 280.76,-202 259.76,-202 256.76,-198 190.24,-198 190.24,-162 283.76,-162 283.76,-198"/>
<text text-anchor="middle" x="237" y="-175.8" font-family="Times,serif" font-size="14.00">HomeModule</text>
</g>
<!-- HomeModule&#45;&gt;AppModule -->
<g id="edge3" class="edge">
<title>HomeModule&#45;&gt;AppModule</title>
<path fill="none" stroke="black" d="M237,-198.11C237,-217.34 237,-245 237,-245 237,-245 314.12,-245 314.12,-245"/>
<polygon fill="black" stroke="black" points="314.12,-248.5 324.12,-245 314.12,-241.5 314.12,-248.5"/>
</g>
<!-- DetailsComponent -->
<g id="node6" class="node">
<title>DetailsComponent</title>
<polygon fill="#ffffb3" stroke="black" points="433.48,-122 312.52,-122 312.52,-86 433.48,-86 433.48,-122"/>
<text text-anchor="middle" x="373" y="-99.8" font-family="Times,serif" font-size="14.00">DetailsComponent</text>
</g>
<!-- DetailsComponent&#45;&gt;HomeModule -->
<g id="edge5" class="edge">
<title>DetailsComponent&#45;&gt;HomeModule</title>
<path fill="none" stroke="black" d="M371.45,-122.11C371.45,-131.9 371.45,-142 371.45,-142 371.45,-142 252.63,-142 252.63,-142 252.63,-142 252.63,-151.89 252.63,-151.89"/>
<polygon fill="black" stroke="black" points="249.13,-151.89 252.63,-161.89 256.13,-151.89 249.13,-151.89"/>
</g>
<!-- HomeComponent -->
<g id="node7" class="node">
<title>HomeComponent</title>
<polygon fill="#ffffb3" stroke="black" points="294.55,-122 179.45,-122 179.45,-86 294.55,-86 294.55,-122"/>
<text text-anchor="middle" x="237" y="-99.8" font-family="Times,serif" font-size="14.00">HomeComponent</text>
</g>
<!-- HomeComponent&#45;&gt;HomeModule -->
<g id="edge6" class="edge">
<title>HomeComponent&#45;&gt;HomeModule</title>
<path fill="none" stroke="black" d="M221.37,-122.01C221.37,-122.01 221.37,-151.85 221.37,-151.85"/>
<polygon fill="black" stroke="black" points="217.87,-151.85 221.37,-161.85 224.87,-151.85 217.87,-151.85"/>
</g>
<!-- VideoListComponent -->
<g id="node8" class="node">
<title>VideoListComponent</title>
<polygon fill="#ffffb3" stroke="black" points="161.82,-122 24.18,-122 24.18,-86 161.82,-86 161.82,-122"/>
<text text-anchor="middle" x="93" y="-99.8" font-family="Times,serif" font-size="14.00">VideoListComponent</text>
</g>
<!-- VideoListComponent&#45;&gt;HomeModule -->
<g id="edge7" class="edge">
<title>VideoListComponent&#45;&gt;HomeModule</title>
<path fill="none" stroke="black" d="M93,-122.01C93,-144.49 93,-180 93,-180 93,-180 179.85,-180 179.85,-180"/>
<polygon fill="black" stroke="black" points="179.85,-183.5 189.85,-180 179.85,-176.5 179.85,-183.5"/>
</g>
</g>
</svg>
